<?xml version="1.0" encoding="utf-8"?>
<!-- Generator: Adobe Illustrator 22.0.1, SVG Export Plug-In . SVG Version: 6.00 Build 0)  -->
<svg version="1.1" id="Layer_1" xmlns="http://www.w3.org/2000/svg" xmlns:xlink="http://www.w3.org/1999/xlink" x="0px" y="0px"
	 viewBox="0 0 88 110" style="enable-background:new 0 0 88 110;" xml:space="preserve">
<g>
	<path d="M75.8,83.3c-0.9-0.1-1.7-0.5-2.3-1.1l2.3-2l2-1.8c7.6-7.4,7.9-14.1,3.5-15.9c-1.9-0.6-3.8-0.7-5.5-0.2
		c-3.5,0.8-6.6,3.6-8.7,7.7c-1.9,3.6-3.1,9.1-1.3,13.3c-3.5,2.6-6.1,3.6-5.6,0.7l0.8-5.1c0.7-4.5,0.2-6.5-2.4-7.9
		c-0.4-0.2-0.7-0.4-1.2-0.5c0,0,0,0-0.1,0l-0.2-0.1L56.5,70l-1-0.3l-0.8-0.4l-0.7-0.2L53.7,69c0.1-0.4,0.2-0.7,0.2-1.1
		c0.3-1.5,0.5-3.1,0-4.1c0-0.1-0.1-0.2-0.2-0.3c-0.3-0.4-0.7-0.6-1.4-0.7c-0.3,0-0.7,0-1,0c-0.3,0.1-0.6,0.2-0.8,0.4
		c-0.9,0.5-1.7,1.5-2.3,2.6c-0.9,2-1.2,4.5,0,6.1c0.2,0.3,0.5,0.5,0.7,0.7c-0.2,1.2-0.5,2.3-0.7,3.4c-1,4.1-2,7.4-3.1,9.8
		c-2.8,6.4-5.3,6.6-4.3,1.2l2.7-14.7c0.6-3-0.5-3.7-3.5-3.1c-1.1,0.2-2,0.2-2.7,0.7c-0.5,0.3-0.9,0.8-1.2,1.6
		c-0.5,1.4-1.3,2.7-2.3,3.9c-0.3,0.4-0.7,0.8-1,1.2c-1.2,1.1-2.5,2-3.8,2.9c0.2-6.8,1.3-11.3,3.8-14.7c0.3-0.4,0.7-0.8,1-1.2
		c0.6-0.6,1.2-1.2,1.9-1.7c-0.7,0-1.3,0.1-1.9,0.1c-0.3,0-0.7,0.1-1,0.2c-2.4,0.5-4.4,1.5-5.9,3c-0.3,0.3-0.6,0.6-0.8,0.9
		c-0.4,0.5-0.8,1-1.2,1.5c-1.8,2.9-2.8,6.8-3.2,11.2c-0.1,1.1-0.2,2.1-0.3,3.2c-5.2,0.7-9.9-1-10.6-5.8C9.7,70.1,15.9,65,24.8,61.6
		c0.4-0.1,0.7-0.3,1.2-0.4c0.3-0.1,0.6-0.2,0.8-0.3c1.9-0.6,3.9-1.2,5.9-1.7c0.3-0.1,0.7-0.1,1-0.2c1.2-0.3,2.3-0.5,3.5-0.7
		c1.8-0.3,3.6-0.6,5.4-0.7c0.8-1,1.7-1.8,2.4-2.1c0.1,0,0.2-0.1,0.3-0.1c0.6-0.1,1.2-0.1,1.7-0.1c0.2-0.7,0.4-1.4,0.8-1.9
		c0,0,0.1-0.1,0.1-0.1c-1,0-2,0.1-3,0.1c-2.7,0.2-5.3,0.4-7.9,0.7c-1.2,0.1-2.3,0.3-3.5,0.5c-0.3,0.1-0.7,0.1-1,0.2
		c-2,0.4-4,0.8-5.9,1.4c-0.3,0-0.6,0.1-0.8,0.2c-0.4,0.1-0.8,0.2-1.2,0.3c-3.2,1-6.3,2.2-9.2,3.7C3,66.9-2.3,83,9.4,86.9
		c3.6,1.3,7.5,1.5,11.3,0.8c-1,8.1-2.8,15.7-7.6,17.6c-3.5,1.4-8.3-2.4-4.1-8.9c-5.8-0.3-8.4,2.2-8.6,5.1v0.8
		c0.2,3.3,3.3,6.8,8.2,7.3c5.9,0.6,12.2-2.7,16.2-9.9c0.4-0.7,0.8-1.5,1.2-2.3c0.3-0.7,0.6-1.4,0.8-2.2c1-3,1.7-6.6,1.9-10.6
		c1.4-0.8,2.7-1.9,4-3c0.3-0.3,0.7-0.7,1-1c0.2-0.2,0.4-0.4,0.7-0.7L33.7,85l-0.6,5.2c-0.2,1.7,0,3,0.6,4c0.7,1.1,1.9,1.7,3.5,1.9
		c0.7,0.1,1.4,0,2.3,0c2-0.3,3.9-1.7,5.5-3.8c1.2-1.5,2.2-3.3,3.1-5.4c0.8-1.8,1.6-3.8,2.3-5.9c0.3-0.9,0.6-1.7,0.8-2.7
		c0.4-1.3,0.7-2.5,1-3.9c0.8,0.5,1.3,0.9,1.4,1.5c0.3,0.7,0.2,1.6,0,2.8c-0.1,1.1-0.4,2.4-0.6,4.1c-0.3,3.1-0.1,5.2,0.6,6.5
		c0.1,0.1,0.1,0.3,0.2,0.4c0.2,0.3,0.4,0.6,0.7,0.8c0.2,0.2,0.6,0.4,0.8,0.6c0.3,0.1,0.6,0.2,1,0.3c0.2,0.1,0.5,0.1,0.7,0.2
		c0.1,0,0.2,0,0.3,0c0.2,0,0.4,0,0.6,0c0.2,0,0.4,0,0.7,0c2.4-0.2,6-2.5,9.6-5.3c1.1,1,2.5,1.9,4.4,2.2c0.9,0.2,2,0.2,3.1,0.1
		c2.1-0.3,4.5-1.2,6.6-3.1c3.1-2.8,4.7-6.8,5.1-12.5C84.9,79.8,79.4,83.6,75.8,83.3z M75.8,68.9c0.8-0.7,1.7-0.9,2.5-0.4
		c1.3,0.8-0.3,3.6-2.5,6.1c-0.9,1.1-2,2-2.9,2.8C72.9,73.5,74.2,70.2,75.8,68.9z"/>
	<path d="M47.9,24.8c-0.8,0-0.7-0.4-1.7-0.4c-0.7,0-0.9,0.2-1.1,0.2c-0.1,0-0.2,0-0.4,0c-0.2-0.1,0,0.6,0.3,0.5c0,0,0,0,0.1,0
		c0.7-0.3,1.7-0.3,2.3,0.2C47.6,25.4,48.4,24.8,47.9,24.8z"/>
	<path d="M18.9,17.1c0,1-0.4,1.7-0.1,2.3c0.3,1,2,1,3.1,2.5c1.1,1.3,2,2.2,2.9,2.9c0.4,0.3,0.8,0.6,1.2,0.7c0.3,0.2,0.6,0.4,0.8,0.5
		c2.1,1.1,4,1.4,5.9,2.8c0.3,0.2,0.7,0.6,1,0.9c0.4,0.3,0.7,0.7,1,1.1c0,3.4,1.7,5.8,2.5,8.1c0,0.1,0.1,0.3,0.1,0.4
		c0.6,2.2,0.3,4.8,4.3,8.1h0.2c-1-2.6-4-5-3.1-7.3c-2-7.6-1-13.9,2.5-19.2l0.1,1.3c-1.1,2.9-2,5.9-1.7,9.3c1.7,0.8,3.6,1.4,5.4,1.5
		c1,0.1,2.1,0.1,3.1,0c0.8-0.1,1.5-0.2,2.3-0.4c0.3-0.1,0.5-0.1,0.8-0.2c0.3-0.1,0.6-0.2,0.8-0.3c-0.2-2.6,0.4-5.2,1.6-7.8
		c0.1-0.1,0.1-0.3,0.2-0.5c0.1-0.3,0.3-0.6,0.5-0.9l0.2,0.1l0.8,0.3l0.6,0.2c-0.2,0.3-0.4,0.7-0.6,1.1c-0.4,0.8-0.7,1.6-0.8,2.4
		c-0.7,2.6-0.6,5.1,0,7.1c0.2,0.8,0.5,1.5,0.8,2.1c0.3,0.5,0.6,0.9,1,1.3c0.2,0.2,0.5,0.5,0.7,0.7c0.1,0,0.2,0.1,0.3,0.1
		c0.1,0.1,0.3,0.1,0.4,0.1c-0.1,0.3-0.1,0.6-0.2,0.8c0,0-0.1,0-0.2,0c-0.1,0-0.2,0.1-0.3,0.1c-0.3,0.1-0.6,0.3-0.7,0.4
		c-0.5,0.3-0.8,0.7-1,1c-0.3,0.7-0.4,1.3-0.6,1.7c0,0.2-0.1,0.3-0.2,0.5c-0.2,0.4-0.4,0.7-0.6,1.1c0,0-0.1,0-0.1,0
		c-0.1,0-0.1,0-0.2,0c-0.8,0-1.6-0.1-2.4-0.2c-0.3,0-0.5-0.1-0.8-0.1c-0.8-0.2-1.5-0.4-2.3-0.6c-1.1-0.4-2.1-0.8-3.1-1.4
		c-0.3-0.1-0.6-0.3-0.8-0.5c0.2,0.2,0.5,0.4,0.8,0.7c1,0.7,2,1.3,3.1,1.8c0.7,0.3,1.5,0.7,2.3,0.9c0.3,0.1,0.5,0.2,0.8,0.3
		c0.6,0.2,1.3,0.3,1.9,0.5c-0.1,0.1-0.3,0.3-0.4,0.4c-0.5,0.5-1,0.9-1.5,1.4c-0.3,0.3-0.6,0.6-0.8,0.8c0,0,0,0,0,0
		c-0.1,0.3-0.1,0.7,0,1.1c0,0.1,0,0.2,0.1,0.2l-0.1,0.2L50,50.6c-0.2,0.5-0.1,1,0.1,1.4c-0.6,0.6-1.1,1.1-1.6,1.7
		c-0.1,0.1-0.2,0.2-0.3,0.4c-0.2,0.4-0.4,0.9-0.5,1.5c-0.1,0-0.1,0-0.2,0c-0.5,0-1,0-1.5,0.1c-0.3,0.1-0.6,0.2-0.9,0.4
		c-1.1,0.7-2.2,2.2-3.2,3.9c-0.3,0-0.6,0-0.9,0c-1.4,0.2-2.5,0.7-3.4,1.7c-0.1,0.1-0.2,0.2-0.3,0.3c-0.7,0.8-1.1,1.7-1,2.7
		c0,0.8,0.4,1.4,1,1.8c0,0,0.1,0.1,0.1,0.1c0.7,0.4,1.7,0.5,2.9,0.3c1.4-0.2,2.6-0.7,3.5-1.6c0.8-0.8,1.3-1.8,1.2-2.8
		c0,0,0.1,0,0.1,0c1.3-0.8,2.5-1.8,3.1-2.7c0.3-0.4,0.6-0.8,0.7-1.2c0.1-0.5,0.1-1,0.1-1.4c0.5,0,1,0,1.5,0c0.3,0,0.5,0,0.8,0
		c0.8,0,1.6,0,2.4,0c0.1,0,0.1,0,0.2,0c0.2,0,0.5,0,0.7,0c0.3,0,0.6,0,0.8,0c0.3,0,0.7,0,1,0.1c0.1,0,0.2,0,0.4,0c0.1,0,0.3,0,0.4,0
		c0.1,0,0.2,0,0.3,0c0.4,0,0.8,0.1,1.2,0.1c5.7,0.5,12.2,0.9,17.1,0.8c2.2,0,4.1-0.2,5.4-0.5c3.7-0.8,6.4-2.7,6.4-7
		c0-3.6-3-6.6-6.6-6.6c-2.6,0-4.3,0.9-5.2,2.1c-0.9,1.2-1,2.8-0.2,4.2c0-0.2,0.1-0.3,0.2-0.5c0.6-0.6,1.8-0.9,2.6-0.9
		c1.1,0,2,0.9,2,2c0,2.1-2.2,2.1-3.7,2.1c-0.3,0-0.6,0-0.8,0c-5.7-0.1-11.5-0.2-17.1-0.3c-0.4,0-0.8,0-1.2,0c-0.1,0-0.2,0-0.3,0
		c-0.2,0-0.5,0-0.7,0c-0.3,0-0.7,0-1,0c-0.3,0-0.6,0-0.8,0c-0.2,0-0.4,0-0.7,0c0.2-0.2,0.4-0.4,0.7-0.6c0,0,0.1-0.1,0.1-0.1
		c0.2,0,0.5-0.1,0.7-0.2c0.3-0.1,0.7-0.3,1-0.4c0.2-0.1,0.5-0.2,0.7-0.4c0.1,0,0.2-0.1,0.3-0.2c0.5-0.3,0.9-0.6,1.2-0.9c0,0,0,0,0,0
		c0.5-0.5,0.5-1,0.4-1.6c0.5-0.4,1-0.8,1.5-1.1c0.9-0.6,0.4-1.3-0.4-0.7c-0.5,0.3-0.9,0.7-1.3,1c0-0.1-0.1-0.3-0.1-0.4
		c0-0.2-0.1-0.4-0.1-0.6l0.1-0.1l0.5-0.7l5-2.4c0.8-0.4,3.2-2.2,1.4-3.1c0,0-0.1,0-0.1,0c0.7-0.7,1.3-1.4,1.7-2.1
		c0.2-0.5,0.5-1.1,0.7-1.6c0.1-0.4-0.1-0.8-0.1-1.3c-0.1-1.9-1.4-4.6-3.4-6.6c-1.4-3.6-3.4-5.2-5.6-6.2c-0.4-0.2-0.8-0.4-1.2-0.5
		c-0.1,0-0.2-0.1-0.3-0.1c-0.2-0.1-0.5-0.2-0.7-0.3c0,0,0,0-0.1,0c-0.3-0.1-0.6-0.2-0.9-0.4c-0.3-0.1-0.6-0.4-0.8-0.6
		c-0.2-0.2-0.5-0.4-0.7-0.6c-0.1,0-0.1-0.1-0.2-0.2c-0.3-0.3-0.7-0.6-1-0.7c0.1-0.5,0.1-1.1,0.2-1.6c0-1.2,0.1-2-0.4-2.2
		c0.1-1.5-0.1-3.5-1.3-5c-0.2-0.3-0.5-0.6-0.8-0.8c-0.6-0.5-1.4-0.9-2.3-1.1c-0.3,0-0.6-0.1-1-0.1c-0.7,0-1.5,0-2.1,0.1
		c-1.9,0.4-3.3,1.7-3.8,3.7c-0.5,2-0.6,3.5-0.5,4.7l-0.1,0c-1.2,0-2.3-0.1-3.5-0.2c-1.1-0.1-2.2-0.1-3.5,0.2c-0.3,0.1-0.7,0.2-1,0.3
		c-0.1,0-0.2,0.1-0.3,0.1c-1.4-1.3-3.4-1.6-5.6-1.7c-0.2,0-0.4,0-0.7,0c0-0.1,0.1-0.1,0.1-0.2c0.2,0,0.4,0,0.6-0.1
		c0.7-0.2,1.2-0.9,1.4-2.1l0.7-3.6c0.6-0.4,0.8-0.9,0.7-1.5c0.6-0.1,0.9-0.6,1.4-1.4l1.8,0.1l0.7,0l-0.2,2c0,0.5,0.1,1,0.5,1.3
		c0.3,0.3,0.7,0.5,1.2,0.6l2.3,0.2l0.1,0c1,0,1.9-0.7,2-1.6L40,2.4c0-0.9-0.7-1.8-1.7-1.9l-1.1-0.1l-1.3-0.1c-1-0.1-1.9,0.6-2,1.5
		l-0.2,1.7v0l-1,0l-0.9,0c-0.1-1.4-1.5-2.7-2.7-1.9c-0.5-0.4-1.1-0.5-1.6,0c-0.2-0.2-0.5-0.3-0.7-0.4c-0.3,0-0.6,0-0.8,0.2
		c-0.1,0-0.2,0-0.2,0.1c-0.4,0-0.7,0.1-0.9,0.3c-0.2,0.1-0.4,0.3-0.5,0.6c0,0-0.1,0-0.2,0c-0.3,0-0.6,0.2-0.7,0.5h-0.7
		c-0.8,0-1.7,2.5-0.7,2.7l1.6,0.2l-0.1,0.2l-3.5,3.3c-1.3,1.2-1.8,2.2-0.7,3.2C18.9,14,19,16,18.9,17.1z M47.2,58.7
		c-0.1,0.9-1.1,1.7-2.1,2.6c-0.4,0.3-0.7,0.6-1,0.9c-0.1,0.1-0.2,0.2-0.3,0.3c-0.8,0.4-1,0-0.3-0.7c0.3-0.3,0.7-0.6,1-0.8
		c-0.2-0.2-0.4-0.4-0.7-0.5c-0.3-0.2-0.6-0.3-0.9-0.4c0.7-0.9,1.5-1.9,2.3-2.4c0.2-0.1,0.5-0.2,0.7-0.3c0.2,0,0.5-0.1,0.7-0.1
		c0.1,0,0.1,0,0.2,0c0,0,0,0,0,0c0.2,0,0.4,0,0.6,0C47.4,57.6,47.3,58.1,47.2,58.7z M48.6,56.5c-0.1,0-0.1,0-0.2,0c0,0,0,0.1,0,0.1
		c-0.1,0-0.1,0-0.2,0c-0.1,0-0.2,0-0.3-0.1c0-0.1-0.1-0.2-0.1-0.3c0,0,0.1,0,0.1-0.1c0.1,0,0.1-0.1,0.1-0.3c0,0,0.1,0,0.1,0
		c0.1,0,0.2,0,0.3,0.1C48.6,56.1,48.7,56.3,48.6,56.5z M51.3,54.3C51.3,54.3,51.3,54.3,51.3,54.3c-0.3,0.3-0.6,0.5-0.8,0.6
		c-0.5,0.3-1,0.5-1.4,0.6c0-0.2,0-0.4,0.1-0.6c0.4-0.1,0.8-0.4,1.3-0.8c0.1,0,0.2-0.1,0.3-0.2c0.1-0.1,0.3-0.3,0.5-0.5
		c0.1-0.1,0.2-0.2,0.4-0.3c-0.1,0-0.2,0-0.4,0c-0.3,0-0.5,0-0.8,0c0,0,0,0,0,0s0,0,0,0c0.3-0.3,0.5-0.6,0.8-0.9
		c0.2-0.2,0.5-0.5,0.7-0.8c0.2,0.2,0.4,0.4,0.7,0.6c0.2,0.2,0.5,0.3,0.8,0.4C52.8,52.9,52,53.6,51.3,54.3z M53.9,51.3
		c0,0-0.1,0-0.2,0c-0.4,0.1-1,0-1.4-0.6l-1-1.2l-0.5-0.6c-0.2-0.3,0.1-0.7,0.5-0.7c0.1,0,0.2,0,0.4,0c0-0.3,0.3-0.6,0.7-0.6
		c0.4,0,0.7,0.3,0.7,0.6c0,0.3-0.3,0.6-0.6,0.6l1.3,1.4l0.2,0.3l0,0C54.3,50.9,54.2,51.2,53.9,51.3z M53.1,47.4
		c0-0.2,0.3-0.4,0.6-0.4c0.1,0,0.2,0,0.2,0c0.2,0.1,0.3,0.2,0.3,0.4s-0.1,0.4-0.3,0.4c0,0-0.1,0-0.2,0
		C53.4,47.8,53.1,47.7,53.1,47.4z M55.5,50.6c-0.1,0.4-0.5,0.5-0.8,0c0,0,0,0,0-0.1l-0.7-1.1l-0.1-0.3c-0.1-0.2,0-0.5,0.1-0.7
		c0.2-0.2,0.5-0.3,0.7-0.1c0,0,0.1,0.1,0.2,0.2l0.7,1.5v0C55.6,50.3,55.6,50.5,55.5,50.6z M56.5,48.9c0,0.1,0,0.2,0.1,0.3
		c0.1,0.2,0,0.5-0.1,0.6c-0.2,0.2-0.6,0.1-0.7-0.2l-0.3-1.3l0,0c0-0.3,0-0.6,0-0.8c0.1-0.3,0.4-0.5,1-0.5c0.1,0,0.3,0,0.4,0
		c0.1,0,0.2,0,0.3,0.1c0.3,0.2,0.3,0.5,0,0.7c0,0-0.1,0-0.2,0.1c-0.3,0-0.4,0-0.5,0.1C56.2,48,56.3,48.5,56.5,48.9z M57.5,49.6
		c-0.1,0-0.2,0-0.3-0.1c-0.1-0.1-0.2-0.3-0.2-0.6c0-0.2,0.1-0.5,0.2-0.6c0.1-0.1,0.2-0.2,0.3-0.2c0.3,0,0.6,0.3,0.6,0.7
		C58.1,49.2,57.8,49.6,57.5,49.6z M58.7,41.7c-0.4,0.3-0.8,0.6-1.2,0.9c-0.1,0.1-0.2,0.2-0.3,0.3c-0.3,0.3-0.5,0.5-0.7,0.8
		c-0.4,0.4-0.7,0.8-0.8,1.2l0.8,0.1l0.1,0l-0.1,0.2l-0.4,0.5c-0.2,0-0.4,0-0.6,0c-0.2,0-0.6,0.1-0.8,0.2c-0.2,0.1-0.5,0.1-0.7,0.2
		c-0.1,0-0.1,0-0.2,0.1c-0.2,0-0.4,0.1-0.5,0.1c0.2-0.2,0.3-0.4,0.5-0.6c0.1-0.1,0.1-0.2,0.2-0.3c0.2-0.3,0.5-0.6,0.7-0.9
		c0.3-0.4,0.6-0.9,0.8-1.4c0.3-0.5,0.6-1,0.8-1.4c0-0.1,0.1-0.2,0.2-0.3c0.2-0.3,0.4-0.6,0.7-0.7c0.1-0.1,0.2-0.1,0.3-0.2
		c0.3-0.2,0.7-0.3,1.2-0.4c0.7-0.2,1.7-0.2,2.9-0.1C60.6,40.4,59.7,41,58.7,41.7z M59.5,39c-0.2,0-0.5,0-0.7,0.1c0,0,0,0-0.1,0
		c0,0,0-0.1,0.1-0.2c0.5-1,1-1.9,1.8-2.6c1-1,1.6-1.1,3.2-1.5C61.6,35.8,60.4,37.4,59.5,39z M62.6,29.7c0.5,1.3,0.7,2.3,0.2,3.8
		c-2.4,0.5-3.4,2.1-4,3.6l0-0.7l-0.2-2.1c0-0.7,0-1.4,0.2-2.1c0.4-1.7,1.3-3.3,2.7-4.7v2.7L62.6,29.7z M56.5,27.9
		c0.1-0.8,0.4-1.7,0.7-2.5h0l0.3,0l0.6,0l-0.6,2.4l-0.1,0.7l0.1-0.2l1.2-1.6l0.9-1.2l1.6,0.2c-1.1,0.7-1.9,1.5-2.5,2.5
		c-0.6,0.8-0.9,1.8-1.2,2.7c-0.1,0.5-0.2,1.1-0.3,1.6c-0.1,0.8-0.1,1.6,0,2.4c-0.3-0.8-0.6-1.6-0.7-2.5C56.1,31,56.1,29.5,56.5,27.9
		z M44.4,14.8c0.2,0,0.4,0,0.7,0.1c0.3,0.1,0.6,0.4,0.8,0.6c0.4,0.4,1.1,0.4,1.5,0.1c0.2-0.2,0.5-0.4,0.8-0.5c0.2,0,0.5-0.1,0.7-0.1
		c0.7,0,1.3,0.4,1.5,0.8c0,0,0,0,0,0l0.8-0.2l0.7-0.2l-0.1,0.3l-0.6,0.4l-0.7,0.4c0,0.1-0.1,0.2-0.1,0.3c-0.3,0.5-0.9,0.8-1.7,0.7
		c-0.2,0-0.4,0-0.6-0.1c-0.4-0.1-0.7-0.4-0.9-0.7c-0.5-0.4-1-0.4-1.5-0.1c-0.2,0.2-0.5,0.4-0.7,0.5c-0.2,0.1-0.6,0.1-0.8,0.1
		c-1-0.1-1.7-0.7-1.7-1.4C42.7,15.3,43.5,14.8,44.4,14.8z M42.9,18.1c0.5,0.4,1,0.4,1.5,0.3c0.2-0.1,0.5-0.2,0.7-0.3
		c0.4-0.1,0.7-0.2,1.5-0.1c0.9,0,1.3,0.2,1.6,0.4c0.2,0.1,0.4,0.2,0.7,0.3c0.5,0.1,1,0.2,1.5-0.1h0c0.7-0.5,0.8,0,0.4,0.3l-0.4,0.3
		l-0.1,0c-0.5,0.3-1.1,0.3-1.8-0.1l-0.4,0.1l-1,0.3c0.1,0.6-1.4,0.5-1.3-0.1L45.1,19l-0.5-0.2c-0.8,0.2-1.4,0.2-1.8-0.1l-0.5-0.4
		C41.9,18,42.4,17.7,42.9,18.1z M42.7,19.4c0.5,0.5,0.9,0.8,1.3,0.8l-0.2-0.5c0.4,0.2,0.8,0.3,1.3,0.2c0.1,0,0.2,0,0.3-0.1
		c0,0.2-0.1,0.4-0.3,0.5c-0.2,0.2-0.6,0.3-0.9,0.3l-0.6,0.3c-0.6,0.3,0.4,1,0.7,0.7l0.7-0.6l0.4-0.3l0,0.9c-0.1,0-0.3,0.1-0.5,0.2
		c-0.3,0.2-0.7,0.6-0.8,0.9c0.4-0.2,0.6-0.2,0.8-0.1c0.2,0.1,0.4,0.4,0.7,0.4c-0.2-0.4,0.1-0.5,0.6-0.5c0.4,0,0.7,0.2,0.5,0.6
		c0.5,0,0.5-0.6,1.4-0.2c0.1,0,0.2,0.1,0.3,0.1c-0.1-0.1-0.1-0.2-0.3-0.3c-0.3-0.4-0.7-0.8-1-1l0.2-0.9l0.8,0.8l0.2,0.2
		c0.4,0.4,1.4-0.4,0.9-0.7l-0.6-0.3c-0.2,0-0.4-0.1-0.6-0.2c-0.3-0.1-0.5-0.4-0.6-0.8c0.2,0.1,0.4,0.2,0.6,0.2
		c0.4,0.1,0.7,0,1.1-0.1L49,20.5c0.4,0,0.8-0.1,1.4-0.6c0,0,0,0,0.1,0c0.3-0.2,0.7,0,0.5,0.5l-0.5,1.1l-0.6,1.4L49,22.4
		c0.5,0.7,0.8,0.9,0.5,1.7c-0.3,0.8-0.7,1.3-1.3,1.6c-0.6,0.3-1.3,0.4-2.1,0.4c-0.4,0-0.7-0.1-1-0.2c-1.1-0.3-1.8-1-2-2.7l-1-3.4
		C41.9,19.2,42.4,19.1,42.7,19.4z M36,8.9c0.4,0,0.4-0.4,0.2-0.7C36,7.9,35.7,7.5,35.8,7l0.3-3.3c0-0.5,0.6-0.5,1.1-0.5
		c0,0,0.1,0,0.2,0l1,0.1c0.6,0,0.8,0.4,0.7,1.3l-0.4,3.2c0,0.3-0.3,0.5-0.6,0.5c-0.6,0-0.6,0.3-0.1,0.6c0.3,0.2,0.2,0.9-0.4,0.9
		l-0.3,0l-1.5-0.1C35.3,9.6,35.4,9,36,8.9z M32.6,4.6C32.7,4.6,32.7,4.6,32.6,4.6c0.4,0,0.8,0,1.1,0c0.5,0,0.9,0.1,0.9,0.4l-0.1,2
		l-0.7-1.2h-0.1l-1,0l-0.8,0C31.3,5.6,31.9,4.6,32.6,4.6z M36.5,20.3l0.6,1.8c-0.6,1.5-0.8,3-0.8,4.5c0.4-1.3,0.7-2.2,1-3.1
		c0.2-0.6,0.5-1.2,0.8-1.8l0.9,0.2c-0.9,1.8-1.4,3.5-1.7,5.3c-0.5,2.9-0.4,5.8,0,8.7c0,0.2,0,0.5,0.1,0.8c0,0,0-0.1-0.1-0.2
		c-0.9-1.7-1.5-5.2-1.7-8.6C35.4,25.2,35.5,22.7,36.5,20.3z M32.7,20.9l0.7,0.1l0.2,2.3l0.1-0.8l0.3-1.5l0.7,0.1
		c-0.4,2.7-0.3,5.3,0.3,7.8c-0.5-0.7-0.9-1.5-1.3-2.4c-0.5-1.1-0.8-2.4-1-3.7c-0.1-0.6-0.2-1.3-0.2-2L32.7,20.9z M26.8,2.4
		c0,0,0.1-0.1,0.2-0.1c0.4-0.1,0.7-0.2,0.8,0.3l0.1,1.1c0.1,0.6-0.8,1-0.8,0.5l0-0.5c0-0.2,0.1-0.5,0-0.7l-0.2-0.3
		C26.7,2.6,26.7,2.5,26.8,2.4z M25.4,3.2l0.5-0.3c0,0,0.1,0,0.1,0c0.2-0.1,0.4,0,0.5,0.4l0.1,1.2c0.1,0.4-0.4,0.7-0.7,0.4
		c0,0,0,0-0.1-0.1L25.5,4C25.3,3.7,25.1,3.4,25.4,3.2z M24.7,3.7C24.7,3.7,24.7,3.7,24.7,3.7C25,3.8,25.2,4,25.2,4.3
		c0.1,0.4,0,0.7-0.3,0.7c0,0-0.1,0-0.1,0c-0.2,0-0.3-0.3-0.4-0.6C24.3,4.1,24.5,3.7,24.7,3.7z M21.3,10.4C21.7,9.9,22,9.9,22.7,9
		l1.1-1.7c0.3-0.4,0.7-0.6,1.1-0.7c0.3,0,0.5,0,0.7,0c0.1,0,0.3-0.1,0.5-0.2c0.3-0.2,0.6-0.5,0.8-0.7c0.1-0.1,0.3-0.2,0.4-0.2
		c0.4,0,1.1,0.6,1.6,0c0.3-0.3-0.1-0.7,0.6-1.1l0.5,0.2l-0.3-0.9c-0.4-1.1,0.5-2.1,0.9-1.4l0.4,1.1c0.1,0.5,0,1-0.1,1.6
		c-0.6,1.3-1.4,2.5-2.2,2.7c-0.5,0.1-1.1,0.2-1.6,0.2c-0.1,0-0.1,0-0.2,0c-0.2,0-0.4,0-0.6,0c-1.1,0.1-1.3,0.1,0,0.4
		c0.1,0,0.3,0.1,0.5,0.1c0.1,0,0.2,0,0.3,0c1.1,0.1,1.5-0.4,1.2,0.8l-1,3.3c0,0-0.1,0-0.2,0c-0.3,0-0.6,0-0.8,0
		c-0.4,0-0.8,0-1.2-0.1c-0.8-0.2-1.7-0.5-2.5-1c0.7,0.7,1.6,1.4,2.5,1.7c0.4,0.1,0.7,0.2,1.2,0.3c0.2,0,0.5,0,0.7,0.1
		c-0.2,0.3-0.4,0.4-0.7,0.5c-0.3,0-0.7,0-1.2-0.2c-0.3-0.1-0.6-0.2-1-0.4l-2.4-1.2C20.5,11.9,20.7,11.2,21.3,10.4z M20.7,17.9
		c0.1-0.8,0.5-2.7,0.6-3.4c0.1,0,0.2,0,0.4,0l0,2.2l1-2.3c0.7,0,1.3,0.1,2.1,0.5c0,0,0,0,0,0c0,0,0,0,0,0.1c-0.2,0.4-0.4,0.8-0.7,1
		c-0.7,0.6-0.2,0.6,0.7,0.6c0.1,0,0.2,0,0.4,0c0.3,0,0.5,0,0.8,0c0.3,0,0.6,0,0.8,0c2.6,0.2,3.8,1.4,4.7,3.9c-0.1,1-0.1,2,0.1,3
		c-1.6-0.1-3.2-0.7-4.7-1.7c0,0,0,0,0,0c-0.6-0.4-0.7,0.2-0.4,0.5c0.1,0.1,0.3,0.2,0.4,0.3c1.7,1.2,3.4,2,5,2.3
		c0.1,0.3,0.2,0.6,0.3,0.9l-1.2-0.1l1.5,1.2c0,0.1,0.1,0.3,0.2,0.5c0,0.1,0.1,0.3,0.2,0.5c-0.1-0.1-0.2-0.1-0.2-0.2
		c-1.4-1.3-3.2-1.1-4.8-2.2c-0.4-0.2-0.8-0.5-1.1-0.7c-0.3-0.2-0.6-0.4-0.8-0.6c-0.5-0.3-0.8-0.6-1.2-0.9c-0.9-0.8-1.6-1.4-2.1-2
		l0.8-0.3l-1.8-0.7C20.5,19.4,20.6,19.3,20.7,17.9z"/>
	<path d="M48.2,34.7c0.7-0.1,1.5-0.2,2.3-0.5c0.3,0,0.5-0.1,0.8-0.2c0.1,0,0.3-0.1,0.4-0.1l0.1-0.8c-0.2,0-0.4,0.1-0.6,0.2
		c-0.3,0.1-0.5,0.2-0.8,0.2c-0.7,0.2-1.5,0.4-2.3,0.5c-1,0.2-2.1,0.2-3.1,0.2c-1.6,0-3.3-0.3-5-0.8c1.5,0.7,3.2,1.2,5,1.4
		C46.1,34.9,47.1,34.9,48.2,34.7z"/>
	<path d="M45.1,24c0.1,0,0.3,0.1,0.5,0.1l1.4,0.1c0.3,0,0.6-0.2,1-0.3h0.3l0.4,0l-0.4-0.3l-0.3-0.2l-1.1,0.2l-0.9,0l-0.8-0.1l-0.3,0
		c-0.5-0.1-0.5,0.2-0.3,0.4C44.7,23.9,44.9,24,45.1,24z"/>
	<path d="M50.4,16l0,0.8l0.1-0.1l0.1-0.1c0-0.1,0-0.1,0-0.2c0-0.2,0-0.4-0.1-0.6l0,0L50.4,16z"/>
	<path d="M50.5,46.7l0.8-0.7l0,0c0,0,0,0,0,0c-0.3,0-0.5,0-0.8,0c-0.7-0.1-1.5-0.2-2.3-0.3c-1-0.2-2-0.4-3.1-0.7
		c-1.4-0.4-2.8-0.9-4.3-1.5c1.4,0.8,2.9,1.5,4.3,2.1c1,0.5,2.1,0.8,3.1,1.1c0.7,0.1,1.3,0.3,2,0.4L50.5,46.7z"/>
	<path d="M71.4,50.3l0-2.4l1.9-2.7l-1.6,0l-0.7,1.3v0c-0.1,0.1-0.1,0.3-0.2,0.4c0-0.1-0.1-0.2-0.1-0.4c0,0,0,0,0,0l-0.7-1.4l-1.6,0
		l1.7,2.8l0,2.4L71.4,50.3z"/>
	<path d="M67.2,46.3c0-0.2,0-0.4-0.1-0.6c-0.1-0.2-0.2-0.3-0.4-0.5c-0.1-0.1-0.4-0.1-0.6-0.2c-0.1,0-0.4,0-0.7-0.1
		c-0.1,0-0.3,0-0.5,0l-1.4,0l-0.1,5.2l1.4,0c0.2,0,0.4,0,0.6,0c0.3,0,0.6,0,0.7,0c0.2,0,0.5-0.1,0.7-0.2c0.2-0.1,0.4-0.3,0.5-0.5
		c0.1-0.2,0.2-0.4,0.2-0.7c0-0.4-0.1-0.7-0.3-0.9c-0.2-0.2-0.5-0.4-0.9-0.4c0.4-0.1,0.6-0.2,0.7-0.4C67.1,46.8,67.2,46.6,67.2,46.3z
		 M64.6,46H65c0.1,0,0.2,0,0.3,0c0.2,0,0.3,0.1,0.4,0.1c0.1,0.1,0.2,0.2,0.2,0.4s-0.1,0.3-0.2,0.4c-0.1,0-0.2,0.1-0.4,0.1
		c-0.1,0-0.2,0-0.3,0h-0.3V46z M65.8,49c-0.1,0.1-0.3,0.1-0.6,0.1c0,0-0.1,0-0.2,0l-0.5,0v-1.1h0.5c0,0,0.1,0,0.1,0
		c0.3,0,0.5,0,0.6,0.1c0.1,0.1,0.2,0.2,0.2,0.4C66,48.8,66,48.9,65.8,49z"/>
	<path d="M21.5,49.6l-1.7,0.6l-0.1,5.5l1.4-0.5v-0.9l0.6-0.2l1.3-0.4l0.5,0.8l1.4-0.5l-3.2-4.2L21.5,49.6z M22.3,52.7L21.6,53
		L21,53.2l0-1.8c0-0.1,0-0.2,0-0.4c0-0.1,0-0.2,0-0.4c0.1,0.2,0.2,0.3,0.3,0.4c0,0.1,0.1,0.1,0.1,0.2l0.3,0.5L22.3,52.7z"/>
	<path d="M16.3,54.7l1.2,1.9l1.2-0.5l-2.8-4.4l-1.3,0.6L15,55c0,0.2,0,0.3,0,0.4c0,0.1,0.1,0.2,0.1,0.3c-0.1-0.1-0.2-0.3-0.4-0.5
		c0,0,0,0,0-0.1L12.9,53l-1.3,0.6l1.4,5.1l1.2-0.6l-0.7-2.1c0-0.2-0.1-0.4-0.1-0.6c-0.1-0.2-0.1-0.4-0.2-0.6
		c0.1,0.2,0.3,0.4,0.5,0.7c0,0,0.1,0.1,0.1,0.1l1.6,1.9l0.8-0.4l-0.3-2.5c0,0,0-0.1,0-0.1c0-0.3-0.1-0.6-0.1-0.8
		c0.1,0.2,0.2,0.4,0.3,0.6S16.2,54.5,16.3,54.7z"/>
	<path d="M28.7,48.2c-0.3-0.1-0.6-0.1-0.9-0.1c0,0,0,0,0,0c-0.3,0-0.9,0.1-1.7,0.3l-1,0.2l1.2,5l1-0.2l0.2,0c0.1,0,0.2,0,0.3,0
		c0.5-0.1,0.9-0.3,1.2-0.4c0.3-0.1,0.6-0.3,0.7-0.6c0.3-0.3,0.5-0.6,0.6-1c0-0.4,0-0.8,0-1.2c-0.1-0.5-0.3-0.8-0.5-1.2
		C29.4,48.6,29,48.4,28.7,48.2z M28.6,51.5c-0.1,0.2-0.5,0.4-0.9,0.6c0,0-0.1,0-0.2,0l-0.2,0l-0.7-2.8l0.2,0c0.3,0,0.6-0.1,0.8,0
		c0.1,0,0.3,0,0.4,0.1c0.3,0.1,0.5,0.5,0.6,1C28.8,50.8,28.8,51.2,28.6,51.5z"/>
	<polygon points="34.8,46.6 31.6,47.1 32.3,52.2 35.5,51.8 35.4,50.6 33.5,50.8 33.5,50 35.1,49.8 34.9,48.6 33.3,48.9 33.2,48 
		34.9,47.8 	"/>
	<path d="M7.7,47.6c0.7,2,2.4,0.1,3.3,0c1,0,1,1,2.9,0c0.7-0.4,0.9-1.5-0.3-1.3c-1.1,0.2-1.5-0.1-0.8-1.1c0.5-0.7,1.6-0.8,2.9-0.3
		c0.4,0.1,0.7,0.3,1.1,0.4c0.9,0.4,1.9,0.7,2.8,0.6c1.1-0.1,0.8-0.5,0-0.5c-1.2,0-1.3-0.4,0-0.6c2.3-0.4,0.3-1,0-1.5
		c-0.5-1-0.2-1.3,0.5-0.4c0.6,0.8,1.3,0.9,2,0.8c0.6-0.1,0.6-0.5,0-0.5c-1.3-0.2-2.2-0.9-2.3-2c-0.1-1.4-1.1-1.6-2.9-1.8
		c-0.1,0-0.1,0-0.2,0c-1.6-0.2-2.5,1.3-3.8,1.6c-1.9,0.3-2.6-1.1-0.6-1.6c2.9-0.7,0.4-2.6,1.9-3.6c0.8-0.6,2-0.6,2.7-0.3
		c0.7,0.3,0.9,0.8,0,1.4c0,0,0,0,0,0c-0.7,0.4-0.5,0.9,0,1.4c0.5,0.4,1.4,0.7,2.1,0.8c2.6,0.4,2.5,1,3.2,2.5
		c0.7,1.5,2.6,0.5,4.4,2.3c1.3,1.3,3.3,1.2,5,2.4c-1.1-1.3-2.3-2.2-3.4-3c-1.4-1.1-2.8-2-2.1-3.8c0.7-1.6,0.3-2-1.2-2.5l-2.8-0.9
		c-1.5-0.5-1.2-1-1.1-1.6c0.1-1.4-1.4-1-2.2,0.3c-0.7,1.2-2.5,0.5-1-1.2c2.8-3,4.9,0.3,6.6,1.4c1.5,1.1,4.2,1.5,3.2,4.6
		c-1,2.9,3.3,3.4,4.8,5.8c-0.2-3-3-2-2.8-5.9c0.1-1.3,0.7-2.3-0.8-3.6c-1.2-1-2.8-0.9-3.3-3c-0.4-1.7-1.5-2-3.6-2.2
		c-3.4-0.3-3-3.4,2-2c1.9,0.6,3.8,2.9,5.6,3.7c3.1,1.3,1.2,3.4,1.7,5.1c0.6,2.3,3.7,3.9,4.6,6.9c-0.4-1.5-0.8-3.2-2.2-4.7
		c-0.9-0.9-1.2-2-0.8-3.8c0.4-1.8,0-3.4-2-4.5c-1.8-1-3.6-2-5.5-3.4c-1.6-1.1-2.7-0.9-5-0.8c-1.4,0-2.4,0.4-3.1,1
		c-1.1,0.9-1.4,2.3-1.1,3.9c0.3,1.2,0.3,2.4-1.9,2.2c-2.5-0.2-4.9,0.6-6.1,1.7c-0.5,0.5-0.7,0.9-0.8,1.4c0,0.7,0.3,1.2,0.8,1.4
		c0.8,0.4,2,0,1.6-1.1c-0.7-0.7,0-1.9,1.3-2c1.3-0.1,2,0.4,1.3,1.7c-1,1.9-2.8,1.2-3.1,5.6C8.4,42.7,8,42.9,7.7,43
		c-1.6,0.7-2.4,1.9-2.5,2.9v0.4C5.3,47.3,6.1,47.9,7.7,47.6z M16.2,40.3c0.3,0.2,0.2,0.8,0.5,1c0.1,0.1,0.2,0.1,0.5,0.1
		c0.7,0,1,1.3,1.4,2c-0.8-0.6-1.4-0.9-1.9-1.1c-0.5-0.2-0.9-0.2-1.5-0.5C14.3,41.4,15.1,39.7,16.2,40.3z M7.7,44.4
		c0.3-0.2,0.7-0.5,1.1-0.7c0,1.2-0.7,2-1.1,2.9c0,0,0,0.1-0.1,0.1C5.9,46.4,6.4,45.3,7.7,44.4z"/>
	<path d="M72.8,42.3c2.9-0.3,5.8-0.8,6.5-2.4c-0.9,1-2.1,0.6-4.3,0.7c2.3-0.6,1.5-3.7-0.7-3.5c-0.5,0-1,0.2-1.5,0.5
		c-2,1.1-4,3.8-6.1,5.4C68.2,42.6,70.5,42.5,72.8,42.3z M72.8,39c0.1-0.2,0.3-0.3,0.6-0.5c1.1-0.7,2,0.4,1.2,1.1
		c-0.8-0.7-1.4,0.2-1.2,0.8c0,0.1,0.2,0.2,0.3,0.3c-0.2,0-0.5,0-0.8,0.1c-0.7,0.1-1.4,0.2-2.1,0.5C71.8,40.4,72.2,39.6,72.8,39z"/>
</g>
</svg>
